<?xml version="1.0" encoding="UTF-8"?>
<svg version="1.1" xmlns="http://www.w3.org/2000/svg" width="48" height="48">
<path d="M0 0 C0 1.32 0 2.64 0 4 C0.144375 5.03125 0.28875 6.0625 0.4375 7.125 C-0.13356797 12.18303057 -2.39378523 14.69884904 -5.56640625 18.5703125 C-7.25764558 20.912576 -7.25764558 20.912576 -6.81640625 23.65234375 C-6.06941911 26.11647738 -6.06941911 26.11647738 -4.375 28.4375 C-3 31 -3 31 -2.625 34 C-4.66806082 38.45758724 -8.04042318 39.29576867 -12.43359375 41.1171875 C-15 42 -15 42 -17 42 C-17 42.66 -17 43.32 -17 44 C-17.66 44 -18.32 44 -19 44 C-18.64788178 41.44714288 -18.25548569 40.24565932 -16.375 38.4375 C-13.35106461 36.60722332 -10.27794193 35.32378424 -7 34 C-7.28875 33.50371094 -7.5775 33.00742187 -7.875 32.49609375 C-10.41201983 27.85369982 -12.11125656 24.37107336 -11 19 C-8.58819148 15.42947477 -5.88267873 12.19797172 -3 9 C-5.21243017 9 -6.86594024 9.35481914 -9 10 C-9.66 10.825 -10.32 11.65 -11 12.5 C-13 15 -13 15 -15.625 15.5 C-16.40875 15.665 -17.1925 15.83 -18 16 C-18.71727778 17.64551962 -19.38325228 19.31422289 -20 21 C-22.60391451 22.76394209 -23.80780296 23 -27 23 C-25.86695008 19.60085025 -24.87481525 18.94745549 -22 17 C-22.33 16.67 -22.66 16.34 -23 16 C-24.14888283 17.12188559 -25.29401137 18.24761684 -26.4375 19.375 C-27.07558594 20.00148438 -27.71367187 20.62796875 -28.37109375 21.2734375 C-30.07882176 22.91723061 -30.07882176 22.91723061 -31 25 C-29.88625 25.12375 -28.7725 25.2475 -27.625 25.375 C-24 26 -24 26 -22 28 C-21.5625 31.4375 -21.5625 31.4375 -22 35 C-24.125 37 -24.125 37 -27 38 C-29.00866306 37.72362376 -31.0115753 37.39658332 -33 37 C-33.51949219 37.7940625 -34.03898437 38.588125 -34.57421875 39.40625 C-35.27160156 40.4271875 -35.96898437 41.448125 -36.6875 42.5 C-37.37199219 43.5209375 -38.05648437 44.541875 -38.76171875 45.59375 C-41 48 -41 48 -43.64453125 48.46875 C-46 48 -46 48 -48 46 C-48.53688194 42.66447815 -48.15274197 41.25088053 -46.3828125 38.34375 C-45.26519531 36.93609375 -45.26519531 36.93609375 -44.125 35.5 C-43.29554458 34.44273056 -42.46611856 33.38543806 -41.63671875 32.328125 C-41.20278809 31.78349609 -40.76885742 31.23886719 -40.32177734 30.67773438 C-39.00588608 29.00747121 -37.72714773 27.3146376 -36.45703125 25.609375 C-27.74547527 13.94615079 -16.24853895 -0.95579641 0 0 Z M-10 6 C-7.02934491 5.65772428 -7.02934491 5.65772428 -4 5 C-3.67 4.34 -3.34 3.68 -3 3 C-6.51716303 3 -7.37121748 3.82445585 -10 6 Z M-16.0625 9 C-17.16271484 9.8353125 -17.16271484 9.8353125 -18.28515625 10.6875 C-18.85105469 11.120625 -19.41695312 11.55375 -20 12 C-17.02465292 13.36907925 -17.02465292 13.36907925 -14.375 11.8125 C-11.8642016 10.23082869 -11.8642016 10.23082869 -11.1875 7.8125 C-11.125625 7.214375 -11.06375 6.61625 -11 6 C-12.95151627 6 -14.58068747 7.87099998 -16.0625 9 Z M-30 28 C-30.99 29.485 -30.99 29.485 -32 31 C-31.01 32.485 -31.01 32.485 -30 34 C-28.35 33.67 -26.7 33.34 -25 33 C-25.33 31.35 -25.66 29.7 -26 28 C-27.32 28 -28.64 28 -30 28 Z M-37 32 C-39.04657233 34.13636431 -39.04657233 34.13636431 -41.125 36.8125 C-41.84945312 37.70582031 -42.57390625 38.59914063 -43.3203125 39.51953125 C-45.28035199 41.91472882 -45.28035199 41.91472882 -45 45 C-44.01 45 -43.02 45 -42 45 C-40.06829458 42.61692534 -40.06829458 42.61692534 -38.3125 39.625 C-37.68988281 38.62726562 -37.06726562 37.62953125 -36.42578125 36.6015625 C-34.83979866 34.20212817 -34.83979866 34.20212817 -35 32 C-35.66 32 -36.32 32 -37 32 Z " fill="#ffbd20" transform="translate(48,0)" stroke="0.1"/>
<path d="M0 0 C0.99 0.33 1.98 0.66 3 1 C2.67 1.99 2.34 2.98 2 4 C1.01 3.67 0.02 3.34 -1 3 C-0.67 2.01 -0.34 1.02 0 0 Z " fill="#000000" transform="translate(19,29)"/>
</svg>
